<svg version="1.1" id="Layer_1" xmlns="http://www.w3.org/2000/svg" xmlns:xlink="http://www.w3.org/1999/xlink" x="0px" y="0px"
	 width="100%" viewBox="0 0 512 512" enable-background="new 0 0 512 512" xml:space="preserve">
<path fill="#EC9A29" opacity="1.000000" stroke="none" 
	d="
M1.000003,476.000000 
	C1.000000,330.309265 1.000000,184.618515 1.274552,38.806610 
	C1.927673,38.364044 2.528239,38.111740 2.652883,37.711296 
	C8.129493,20.116486 19.511662,8.410607 37.159744,2.853049 
	C37.591522,2.717077 37.726562,1.638789 38.000000,1.000000 
	C183.690750,1.000000 329.381500,1.000000 475.194916,1.275875 
	C475.639648,1.929951 475.892700,2.529657 476.293610,2.654511 
	C493.887329,8.133491 505.594940,19.513954 511.148102,37.165138 
	C511.283356,37.595085 512.361572,37.728355 513.000000,38.000000 
	C513.000000,183.690750 513.000000,329.381500 512.724121,475.194916 
	C512.070068,475.639618 511.470306,475.892639 511.345459,476.293579 
	C505.866455,493.887299 494.486176,505.595154 476.834869,511.148193 
	C476.404907,511.283386 476.271637,512.361572 476.000000,513.000000 
	C330.309265,513.000000 184.618515,513.000000 38.806614,512.725464 
	C38.364037,512.072327 38.111721,511.471710 37.711273,511.347076 
	C20.116446,505.870483 8.410596,494.488312 2.853031,476.840271 
	C2.717076,476.408478 1.638795,476.273438 1.000003,476.000000 
M171.272064,149.759521 
	C154.508286,189.146652 161.976868,223.157104 193.965378,251.995041 
	C191.745682,252.997467 189.330887,253.776260 187.247086,255.082916 
	C178.114410,260.809570 168.308105,265.782471 160.162064,272.696930 
	C141.769485,288.308868 133.471893,309.222717 132.219589,333.003845 
	C131.305710,350.358551 133.296997,367.262390 141.843170,382.828735 
	C153.654892,404.343079 172.746201,416.326538 195.565842,422.930786 
	C219.528473,429.865875 244.100769,431.116699 268.839966,428.884674 
	C301.880859,425.903656 331.739868,414.876984 356.802338,392.592194 
	C373.221588,377.992645 383.488922,360.337616 382.049255,337.495789 
	C381.744476,332.660004 381.220673,327.169708 375.989105,325.255005 
	C371.052856,323.448395 368.412170,328.280212 365.284210,331.080902 
	C355.620911,339.733154 346.422760,348.968506 336.268768,356.996948 
	C307.921783,379.410004 275.898895,384.533142 241.556091,374.681793 
	C226.019196,370.224976 212.138412,362.158813 207.858749,345.183563 
	C205.595383,336.205841 205.863556,326.387695 206.219147,316.995514 
	C206.888672,299.312103 214.170181,284.592377 228.146393,273.362579 
	C230.704147,271.307434 232.951889,270.802979 236.279510,271.623901 
	C252.340332,275.586182 268.311096,274.917297 283.914551,269.269714 
	C289.412323,267.279846 293.838867,263.726654 295.837250,257.958313 
	C299.511871,247.351501 294.353699,238.599930 282.143463,235.098480 
	C270.943481,231.886719 259.474518,231.528625 247.982574,233.112823 
	C244.958511,233.529709 243.051300,232.716812 241.146317,230.424423 
	C234.658401,222.617111 229.521027,214.019089 227.662460,204.040314 
	C226.488266,197.736038 226.866028,191.142700 226.488327,183.473587 
	C243.366959,195.648041 260.349152,202.967178 279.430328,204.426224 
	C303.924316,206.299179 327.005066,202.594543 346.102478,185.431305 
	C370.493408,163.510620 366.841370,124.070343 338.796661,107.100021 
	C324.525360,98.464203 308.572540,96.311211 292.260193,95.996857 
	C262.826324,95.429642 234.612137,100.555458 208.345261,114.387115 
	C199.375961,119.110184 199.443893,119.249039 191.824890,112.360489 
	C190.713013,111.355194 189.621231,110.324318 188.568390,109.257652 
	C182.599625,103.210358 176.816498,96.966568 170.628418,91.153488 
	C166.252090,87.042397 161.404205,82.886177 154.685715,86.010620 
	C150.318436,88.041626 148.786316,95.089989 150.943710,102.800392 
	C154.775803,116.496056 161.999680,128.452209 170.992813,139.267075 
	C173.977570,142.856461 174.648102,145.608978 171.272064,149.759521 
z"/>
<path fill="#000000" opacity="1.000000" stroke="none" 
	d="
M37.531342,1.000000 
	C37.726562,1.638789 37.591522,2.717077 37.159744,2.853049 
	C19.511662,8.410607 8.129493,20.116486 2.652883,37.711296 
	C2.528239,38.111740 1.927673,38.364044 1.274552,38.342728 
	C1.000000,25.740049 1.000000,13.480098 1.000000,1.000000 
	C13.020000,1.000000 25.041342,1.000000 37.531342,1.000000 
z"/>
<path fill="#000000" opacity="1.000000" stroke="none" 
	d="
M513.000000,37.531342 
	C512.361572,37.728355 511.283356,37.595085 511.148102,37.165138 
	C505.594940,19.513954 493.887329,8.133491 476.293610,2.654511 
	C475.892700,2.529657 475.639648,1.929951 475.658813,1.275875 
	C488.259949,1.000000 500.519897,1.000000 513.000000,1.000000 
	C513.000000,13.020000 513.000000,25.041342 513.000000,37.531342 
z"/>
<path fill="#000000" opacity="1.000000" stroke="none" 
	d="
M1.000003,476.468658 
	C1.638795,476.273438 2.717076,476.408478 2.853031,476.840271 
	C8.410596,494.488312 20.116446,505.870483 37.711273,511.347076 
	C38.111721,511.471710 38.364037,512.072327 38.342728,512.725464 
	C25.740049,513.000000 13.480098,513.000000 1.000000,513.000000 
	C1.000000,500.980011 1.000000,488.958649 1.000003,476.468658 
z"/>
<path fill="#000000" opacity="1.000000" stroke="none" 
	d="
M476.468689,513.000000 
	C476.271637,512.361572 476.404907,511.283386 476.834869,511.148193 
	C494.486176,505.595154 505.866455,493.887299 511.345459,476.293579 
	C511.470306,475.892639 512.070068,475.639618 512.724121,475.658813 
	C513.000000,488.259949 513.000000,500.519897 513.000000,513.000000 
	C500.980011,513.000000 488.958649,513.000000 476.468689,513.000000 
z"/>
<path fill="#010100" opacity="1.000000" stroke="none" 
	d="
M171.479919,149.446869 
	C174.648102,145.608978 173.977570,142.856461 170.992813,139.267075 
	C161.999680,128.452209 154.775803,116.496056 150.943710,102.800392 
	C148.786316,95.089989 150.318436,88.041626 154.685715,86.010620 
	C161.404205,82.886177 166.252090,87.042397 170.628418,91.153488 
	C176.816498,96.966568 182.599625,103.210358 188.568390,109.257652 
	C189.621231,110.324318 190.713013,111.355194 191.824890,112.360489 
	C199.443893,119.249039 199.375961,119.110184 208.345261,114.387115 
	C234.612137,100.555458 262.826324,95.429642 292.260193,95.996857 
	C308.572540,96.311211 324.525360,98.464203 338.796661,107.100021 
	C366.841370,124.070343 370.493408,163.510620 346.102478,185.431305 
	C327.005066,202.594543 303.924316,206.299179 279.430328,204.426224 
	C260.349152,202.967178 243.366959,195.648041 226.488327,183.473587 
	C226.866028,191.142700 226.488266,197.736038 227.662460,204.040314 
	C229.521027,214.019089 234.658401,222.617111 241.146317,230.424423 
	C243.051300,232.716812 244.958511,233.529709 247.982574,233.112823 
	C259.474518,231.528625 270.943481,231.886719 282.143463,235.098480 
	C294.353699,238.599930 299.511871,247.351501 295.837250,257.958313 
	C293.838867,263.726654 289.412323,267.279846 283.914551,269.269714 
	C268.311096,274.917297 252.340332,275.586182 236.279510,271.623901 
	C232.951889,270.802979 230.704147,271.307434 228.146393,273.362579 
	C214.170181,284.592377 206.888672,299.312103 206.219147,316.995514 
	C205.863556,326.387695 205.595383,336.205841 207.858749,345.183563 
	C212.138412,362.158813 226.019196,370.224976 241.556091,374.681793 
	C275.898895,384.533142 307.921783,379.410004 336.268768,356.996948 
	C346.422760,348.968506 355.620911,339.733154 365.284210,331.080902 
	C368.412170,328.280212 371.052856,323.448395 375.989105,325.255005 
	C381.220673,327.169708 381.744476,332.660004 382.049255,337.495789 
	C383.488922,360.337616 373.221588,377.992645 356.802338,392.592194 
	C331.739868,414.876984 301.880859,425.903656 268.839966,428.884674 
	C244.100769,431.116699 219.528473,429.865875 195.565842,422.930786 
	C172.746201,416.326538 153.654892,404.343079 141.843170,382.828735 
	C133.296997,367.262390 131.305710,350.358551 132.219589,333.003845 
	C133.471893,309.222717 141.769485,288.308868 160.162064,272.696930 
	C168.308105,265.782471 178.114410,260.809570 187.247086,255.082916 
	C189.330887,253.776260 191.745682,252.997467 193.965378,251.995041 
	C161.976868,223.157104 154.508286,189.146652 171.479919,149.446869 
M287.515045,171.049316 
	C293.525177,170.065735 299.700348,169.641861 305.496399,167.932434 
	C310.714294,166.393509 313.221832,161.997940 313.133179,156.356094 
	C313.022369,149.302628 309.596832,144.315887 302.264496,142.007690 
	C287.931122,137.495560 273.732666,138.995270 259.760620,143.846664 
	C252.225647,146.462967 245.678421,150.621094 239.938919,156.660889 
	C254.707214,165.330917 269.828613,170.768982 287.515045,171.049316 
z"/>
<path fill="#E99829" opacity="1.000000" stroke="none" 
	d="
M287.032837,171.034897 
	C269.828613,170.768982 254.707214,165.330917 239.938919,156.660889 
	C245.678421,150.621094 252.225647,146.462967 259.760620,143.846664 
	C273.732666,138.995270 287.931122,137.495560 302.264496,142.007690 
	C309.596832,144.315887 313.022369,149.302628 313.133179,156.356094 
	C313.221832,161.997940 310.714294,166.393509 305.496399,167.932434 
	C299.700348,169.641861 293.525177,170.065735 287.032837,171.034897 
z"/>
</svg>