<?xml version="1.0" standalone="no"?>
<!DOCTYPE svg PUBLIC "-//W3C//DTD SVG 20010904//EN"
 "http://www.w3.org/TR/2001/REC-SVG-20010904/DTD/svg10.dtd">
<svg version="1.0" xmlns="http://www.w3.org/2000/svg"
 width="512.000000pt" height="512.000000pt" viewBox="0 0 512.000000 512.000000"
 preserveAspectRatio="xMidYMid meet">

<g transform="translate(0.000000,512.000000) scale(0.100000,-0.100000)"
fill="#000000" stroke="none">
<path d="M1520 4260 c-73 -73 -9 -274 157 -496 l53 -72 -40 -83 c-51 -106 -70
-196 -70 -331 0 -248 70 -430 226 -584 l81 -81 -70 -34 c-220 -105 -390 -269
-472 -453 -92 -209 -99 -527 -16 -741 92 -237 303 -410 601 -494 244 -68 632
-79 900 -25 104 21 293 85 381 129 175 87 353 232 445 361 144 201 160 552 24
525 -8 -2 -69 -55 -135 -119 -196 -190 -398 -327 -555 -376 -105 -34 -252 -50
-379 -43 -277 16 -483 120 -563 285 l-33 67 0 165 c1 250 35 349 167 484 69
70 81 78 105 72 113 -25 149 -28 263 -23 138 7 208 22 274 61 69 41 91 78 91
158 0 62 -2 69 -34 102 -68 71 -204 103 -391 92 l-106 -5 -41 52 c-85 110
-123 216 -123 349 l0 88 59 -40 c145 -99 325 -158 507 -167 275 -13 481 54
636 208 118 116 155 214 145 384 -13 244 -168 405 -453 471 -124 29 -478 27
-632 -4 -153 -31 -297 -79 -421 -141 -72 -37 -109 -50 -124 -45 -11 4 -86 70
-166 149 -80 78 -157 149 -171 158 -34 23 -95 22 -120 -3z m1504 -560 c68 -34
91 -68 91 -135 0 -104 -71 -141 -265 -139 -134 2 -239 28 -379 96 l-84 42 39
33 c54 46 166 101 244 118 41 9 109 14 185 12 106 -2 126 -5 169 -27z"/>
</g>
</svg>
