<?xml version="1.0" encoding="UTF-8"?>
<!DOCTYPE svg PUBLIC "-//W3C//DTD SVG 1.1//EN" "http://www.w3.org/Graphics/SVG/1.1/DTD/svg11.dtd">
<svg xmlns="http://www.w3.org/2000/svg" version="1.1" width="192px" height="192px" style="shape-rendering:geometricPrecision; text-rendering:geometricPrecision; image-rendering:optimizeQuality; fill-rule:evenodd; clip-rule:evenodd" xmlns:xlink="http://www.w3.org/1999/xlink">
<g><path style="opacity:0.998" fill="#eb9928" d="M 10.5,-0.5 C 67.1667,-0.5 123.833,-0.5 180.5,-0.5C 184.5,2.83333 188.167,6.5 191.5,10.5C 191.5,67.1667 191.5,123.833 191.5,180.5C 188.167,184.5 184.5,188.167 180.5,191.5C 123.833,191.5 67.1667,191.5 10.5,191.5C 6.5,188.167 2.83333,184.5 -0.5,180.5C -0.5,123.833 -0.5,67.1667 -0.5,10.5C 2.83333,6.5 6.5,2.83333 10.5,-0.5 Z"/></g>
<g><path style="opacity:1" fill="#050200" d="M 56.5,31.5 C 58.1992,31.3398 59.8659,31.5065 61.5,32C 65.3879,36.3909 69.7212,40.2243 74.5,43.5C 89.9854,35.0815 106.319,33.2482 123.5,38C 134.82,44.3638 137.654,53.5305 132,65.5C 122.447,75.1171 110.947,78.2838 97.5,75C 92.9715,73.4861 88.8048,71.3194 85,68.5C 83.114,75.5485 84.9473,81.3818 90.5,86C 96.6835,86.0138 102.683,87.0138 108.5,89C 111.568,93.7242 110.568,97.3909 105.5,100C 98.8509,101.615 92.1842,101.949 85.5,101C 76.44,109.371 73.94,119.538 78,131.5C 81.9499,136.563 87.1165,139.729 93.5,141C 107.209,142.763 119.209,139.096 129.5,130C 132.167,127.333 134.833,124.667 137.5,122C 141.914,121.035 143.581,122.868 142.5,127.5C 140.679,139.288 134.346,147.788 123.5,153C 102.786,162.996 82.1196,162.996 61.5,153C 46.7376,138.923 44.5709,123.09 55,105.5C 59.9544,100.537 65.4544,96.3702 71.5,93C 62.4578,85.2105 58.9578,75.3772 61,63.5C 61.314,59.8712 62.4807,56.5379 64.5,53.5C 61.0337,48.865 58.2003,43.865 56,38.5C 55.2967,36.0709 55.4634,33.7375 56.5,31.5 Z"/></g>
<g><path style="opacity:1" fill="#df9126" d="M 98.5,51.5 C 103.93,51.161 109.264,51.661 114.5,53C 118.001,60.6997 115.335,64.1997 106.5,63.5C 101.595,63.2737 96.9282,62.1071 92.5,60C 90.7448,59.2801 89.9115,58.1134 90,56.5C 92.9788,54.933 95.8121,53.2663 98.5,51.5 Z"/></g>
</svg>
