<?xml version="1.0" encoding="UTF-8"?>
<!DOCTYPE svg PUBLIC "-//W3C//DTD SVG 1.1//EN" "http://www.w3.org/Graphics/SVG/1.1/DTD/svg11.dtd">
<svg xmlns="http://www.w3.org/2000/svg" version="1.1" width="1533px" height="512px" style="shape-rendering:geometricPrecision; text-rendering:geometricPrecision; image-rendering:optimizeQuality; fill-rule:evenodd; clip-rule:evenodd" xmlns:xlink="http://www.w3.org/1999/xlink">
<g><path style="opacity:0.999" fill="#eb9929" d="M 40.5,-0.5 C 183.833,-0.5 327.167,-0.5 470.5,-0.5C 491.818,5.31865 505.318,18.9853 511,40.5C 511.5,87.8322 511.667,135.165 511.5,182.5C 493.847,179.956 477.681,183.623 463,193.5C 447.088,181.387 429.588,178.554 410.5,185C 407.368,186.635 404.368,188.468 401.5,190.5C 379.295,177.847 362.795,183.181 352,206.5C 341.529,232.913 330.862,259.247 320,285.5C 314.584,300.487 318.417,312.321 331.5,321C 351.624,326.69 366.457,320.19 376,301.5C 383.724,282.385 391.724,263.385 400,244.5C 402.057,240.777 405.057,238.11 409,236.5C 402.402,253.723 395.735,271.057 389,288.5C 385.13,302.571 389.296,313.405 401.5,321C 419.908,326.31 434.074,320.81 444,304.5C 451.943,286.282 459.609,267.948 467,249.5C 470,243.833 474.333,239.5 480,236.5C 474.181,250.931 468.515,265.598 463,280.5C 458.296,301.941 466.462,315.441 487.5,321C 495.677,321.171 503.677,321.671 511.5,322.5C 511.5,337.167 511.5,351.833 511.5,366.5C 508.972,374.247 506.139,381.913 503,389.5C 497.725,403.069 500.558,414.402 511.5,423.5C 511.667,439.17 511.5,454.837 511,470.5C 505.318,492.015 491.818,505.681 470.5,511.5C 327.167,511.5 183.833,511.5 40.5,511.5C 19.1667,505.5 5.5,491.833 -0.5,470.5C -0.5,327.167 -0.5,183.833 -0.5,40.5C 5.5,19.1667 19.1667,5.5 40.5,-0.5 Z"/></g>
<g><path style="opacity:1" fill="#010000" d="M 153.5,83.5 C 158.814,82.9904 163.48,84.4904 167.5,88C 177.397,98.5665 187.897,108.4 199,117.5C 240.57,93.4734 284.404,88.3067 330.5,102C 355.403,114.31 364.903,134.143 359,161.5C 353.374,176.793 343.208,187.959 328.5,195C 291.907,209.818 257.74,205.651 226,182.5C 223.227,201.252 228.394,217.419 241.5,231C 256.082,229.496 270.416,230.829 284.5,235C 295.417,240.338 298.25,248.505 293,259.5C 288.311,265.506 282.144,269.006 274.5,270C 260.097,273.428 245.764,273.261 231.5,269.5C 216.444,278.587 207.61,291.921 205,309.5C 204.333,319.5 204.333,329.5 205,339.5C 209.339,355.629 219.506,366.463 235.5,372C 274.682,383.917 310.015,376.917 341.5,351C 350.804,342.697 359.804,334.031 368.5,325C 375.324,322.448 379.158,324.948 380,332.5C 381.883,351.518 376.549,368.184 364,382.5C 336.15,410.499 302.317,425.666 262.5,428C 238.388,429.822 214.722,427.489 191.5,421C 147.054,405.317 126.887,373.817 131,326.5C 134.975,295.197 150.809,272.031 178.5,257C 183.5,254.667 188.5,252.333 193.5,250C 173.821,236.047 163.321,216.88 162,192.5C 160.706,180.941 161.706,169.608 165,158.5C 167.246,153.01 169.746,147.677 172.5,142.5C 162.081,129.669 154.248,115.335 149,99.5C 147.318,93.1576 148.818,87.8243 153.5,83.5 Z"/></g>
<g><path style="opacity:0.965" fill="#e4e3e3" d="M 511.5,423.5 C 500.558,414.402 497.725,403.069 503,389.5C 506.139,381.913 508.972,374.247 511.5,366.5C 517.669,352.014 523.669,337.347 529.5,322.5C 523.602,322.295 517.602,322.295 511.5,322.5C 503.677,321.671 495.677,321.171 487.5,321C 466.462,315.441 458.296,301.941 463,280.5C 468.515,265.598 474.181,250.931 480,236.5C 474.333,239.5 470,243.833 467,249.5C 459.609,267.948 451.943,286.282 444,304.5C 434.074,320.81 419.908,326.31 401.5,321C 389.296,313.405 385.13,302.571 389,288.5C 395.735,271.057 402.402,253.723 409,236.5C 405.057,238.11 402.057,240.777 400,244.5C 391.724,263.385 383.724,282.385 376,301.5C 366.457,320.19 351.624,326.69 331.5,321C 318.417,312.321 314.584,300.487 320,285.5C 330.862,259.247 341.529,232.913 352,206.5C 362.795,183.181 379.295,177.847 401.5,190.5C 404.368,188.468 407.368,186.635 410.5,185C 429.588,178.554 447.088,181.387 463,193.5C 477.681,183.623 493.847,179.956 511.5,182.5C 539.316,190.859 549.482,209.192 542,237.5C 538.553,247.177 534.72,256.677 530.5,266C 537.212,266.034 543.712,267.2 550,269.5C 550.5,269.167 551,268.833 551.5,268.5C 560.724,245.053 570.224,221.72 580,198.5C 591.585,183.104 606.252,179.437 624,187.5C 640.594,179.357 657.094,179.524 673.5,188C 686.256,198.004 693.422,211.171 695,227.5C 695.333,232.167 695.667,236.833 696,241.5C 714,197.5 732,153.5 750,109.5C 761.081,93.017 775.914,88.517 794.5,96C 803.965,102.709 807.798,111.875 806,123.5C 787.855,171.1 769.022,218.434 749.5,265.5C 753.898,266.257 758.231,267.257 762.5,268.5C 763.088,230.458 780.422,203.292 814.5,187C 837.145,178.526 859.145,179.859 880.5,191C 892.139,199.637 900.306,210.804 905,224.5C 908.441,212.816 913.774,202.15 921,192.5C 933.486,182.38 946.986,180.88 961.5,188C 972.178,198.057 974.678,209.89 969,223.5C 963.862,236.581 958.529,249.581 953,262.5C 952.251,263.635 952.417,264.635 953.5,265.5C 955.918,264.543 958.084,263.209 960,261.5C 968.758,239.552 978.091,217.886 988,196.5C 999.026,183.701 1012.53,180.201 1028.5,186C 1038.44,192.385 1043.28,201.552 1043,213.5C 1061.94,186.784 1087.44,176.951 1119.5,184C 1123.19,185.198 1126.53,187.032 1129.5,189.5C 1141.25,182.173 1153.25,181.673 1165.5,188C 1176.22,197.032 1179.05,208.199 1174,221.5C 1168.06,236.496 1162.23,251.496 1156.5,266.5C 1162.42,266.12 1168.08,267.12 1173.5,269.5C 1195.2,218.091 1216.37,166.424 1237,114.5C 1246.54,94.9841 1261.7,88.4841 1282.5,95C 1295.64,103.715 1299.48,115.548 1294,130.5C 1287.36,147.43 1280.52,164.264 1273.5,181C 1295.89,184.719 1310.05,197.553 1316,219.5C 1317.86,226.709 1318.86,234.043 1319,241.5C 1337.09,196.223 1355.76,151.223 1375,106.5C 1383.61,94.9572 1395.11,90.4572 1409.5,93C 1426.24,98.6371 1432.41,110.137 1428,127.5C 1409.78,173.613 1391.28,219.613 1372.5,265.5C 1376.9,266.257 1381.23,267.257 1385.5,268.5C 1386.29,230.38 1403.63,202.88 1437.5,186C 1454.4,180.421 1471.4,180.087 1488.5,185C 1516.76,198.699 1525.93,220.533 1516,250.5C 1513.51,256.647 1509.67,261.814 1504.5,266C 1524.05,271.607 1530.55,284.107 1524,303.5C 1516.68,316.25 1505.52,322.416 1490.5,322C 1471.48,322.803 1452.48,322.469 1433.5,321C 1420.16,319.495 1408.83,313.995 1399.5,304.5C 1393.72,313.772 1385.38,319.272 1374.5,321C 1359.17,323 1343.83,323 1328.5,321C 1313.2,318.035 1304.37,308.869 1302,293.5C 1278.54,322.825 1249.37,330.158 1214.5,315.5C 1200.95,324.049 1187.62,324.049 1174.5,315.5C 1163.5,320.774 1151.84,323.107 1139.5,322.5C 1129.16,322.858 1119.33,320.858 1110,316.5C 1092.18,323.554 1074.01,324.388 1055.5,319C 1039.4,311.904 1029.57,299.737 1026,282.5C 1024.88,275.551 1024.21,268.551 1024,261.5C 1018.07,275.793 1012.24,290.127 1006.5,304.5C 1033.88,306.934 1042.71,320.934 1033,346.5C 1028.45,353.042 1022.29,357.209 1014.5,359C 1004.25,360.78 993.921,361.78 983.5,362C 976.661,378.186 968.161,393.352 958,407.5C 934.587,431.644 906.754,438.478 874.5,428C 840.896,411.211 829.396,384.711 840,348.5C 851.153,324.329 869.986,310.495 896.5,307C 893.217,303.603 890.551,299.77 888.5,295.5C 873.378,314.641 853.545,323.641 829,322.5C 814.854,322.836 801.354,320.003 788.5,314C 784.367,310.869 780.534,307.369 777,303.5C 771.243,313.245 762.743,319.079 751.5,321C 736.167,323 720.833,323 705.5,321C 690.202,318.035 681.368,308.869 679,293.5C 665.745,313.462 647.078,323.129 623,322.5C 613.737,322.118 604.57,320.785 595.5,318.5C 594.833,318.833 594.167,319.167 593.5,319.5C 581.143,351.209 567.977,382.542 554,413.5C 542.082,427.859 527.915,431.193 511.5,423.5 Z M 630.5,234.5 C 632.833,234.5 635.167,234.5 637.5,234.5C 637.879,245.865 634.212,255.699 626.5,264C 622.915,265.675 619.248,265.842 615.5,264.5C 618.96,256.955 622.126,249.288 625,241.5C 626.666,239.004 628.5,236.671 630.5,234.5 Z M 1099.5,234.5 C 1101.53,234.338 1103.53,234.505 1105.5,235C 1101.36,245.082 1097.03,255.082 1092.5,265C 1089.82,265.74 1087.16,266.073 1084.5,266C 1082.6,257.677 1084.43,250.177 1090,243.5C 1093.06,240.268 1096.23,237.268 1099.5,234.5 Z M 1255.5,234.5 C 1257.5,234.5 1259.5,234.5 1261.5,234.5C 1260.96,245.754 1256.96,255.587 1249.5,264C 1246.3,265.483 1242.96,265.817 1239.5,265C 1242.8,256.768 1246.3,248.602 1250,240.5C 1251.7,238.304 1253.53,236.304 1255.5,234.5 Z M 836.5,237.5 C 839.518,237.335 842.518,237.502 845.5,238C 849.243,248.859 846.577,257.859 837.5,265C 833.167,265.667 828.833,265.667 824.5,265C 822.506,257.948 823.673,251.448 828,245.5C 830.729,242.601 833.562,239.934 836.5,237.5 Z M 905.5,361.5 C 910.214,361.173 914.88,361.507 919.5,362.5C 916.694,368.472 912.361,372.972 906.5,376C 897.31,378.641 893.976,375.474 896.5,366.5C 899.261,364.26 902.261,362.593 905.5,361.5 Z"/></g>
<g><path style="opacity:1" fill="#121212" d="M 775.5,103.5 C 789.548,103.043 795.714,109.71 794,123.5C 773.797,174.609 753.297,225.609 732.5,276.5C 738.807,277.331 745.141,277.831 751.5,278C 768.54,280.831 772.207,289.497 762.5,304C 758.318,307.09 753.651,309.09 748.5,310C 733.464,310.876 718.464,310.543 703.5,309C 695.013,306.034 690.68,300.034 690.5,291C 690.951,287.08 691.784,283.247 693,279.5C 714.667,226.167 736.333,172.833 758,119.5C 761.536,111.456 767.369,106.123 775.5,103.5 Z"/></g>
<g><path style="opacity:1" fill="#111111" d="M 1263.5,103.5 C 1282.38,103.209 1288.55,111.875 1282,129.5C 1273.3,151.072 1264.46,172.572 1255.5,194C 1280.83,189.081 1297.33,198.914 1305,223.5C 1311.25,254.727 1302.42,280.56 1278.5,301C 1272.07,306.144 1264.74,309.144 1256.5,310C 1240.56,313.317 1226.22,310.15 1213.5,300.5C 1207.04,308.269 1198.71,311.436 1188.5,310C 1179.37,305.635 1176.2,298.469 1179,288.5C 1201.67,232.5 1224.33,176.5 1247,120.5C 1250.05,112.29 1255.55,106.623 1263.5,103.5 Z M 1255.5,234.5 C 1253.53,236.304 1251.7,238.304 1250,240.5C 1246.3,248.602 1242.8,256.768 1239.5,265C 1242.96,265.817 1246.3,265.483 1249.5,264C 1256.96,255.587 1260.96,245.754 1261.5,234.5C 1259.5,234.5 1257.5,234.5 1255.5,234.5 Z"/></g>
<g><path style="opacity:1" fill="#121212" d="M 1398.5,103.5 C 1412.55,103.043 1418.71,109.71 1417,123.5C 1396.8,174.609 1376.3,225.609 1355.5,276.5C 1361.81,277.331 1368.14,277.831 1374.5,278C 1391.54,280.831 1395.21,289.497 1385.5,304C 1381.32,307.09 1376.65,309.09 1371.5,310C 1356.46,310.876 1341.46,310.543 1326.5,309C 1318.01,306.034 1313.68,300.034 1313.5,291C 1313.95,287.08 1314.78,283.247 1316,279.5C 1337.67,226.167 1359.33,172.833 1381,119.5C 1384.54,111.456 1390.37,106.123 1398.5,103.5 Z"/></g>
<g><path style="opacity:1" fill="#e79628" d="M 275.5,137.5 C 286.897,136.413 297.564,138.579 307.5,144C 315.295,156.748 311.961,165.081 297.5,169C 276.132,171.408 256.466,166.741 238.5,155C 248.865,144.832 261.199,138.998 275.5,137.5 Z"/></g>
<g><path style="opacity:1" fill="#121212" d="M 421.5,192.5 C 438.269,190.414 451.602,196.08 461.5,209.5C 479.646,191.586 499.979,188.419 522.5,200C 533.693,209.371 536.527,220.871 531,234.5C 525.296,248.739 519.463,262.905 513.5,277C 521.167,277.333 528.833,277.667 536.5,278C 550.744,280.418 554.578,288.251 548,301.5C 544.579,305.257 540.412,307.757 535.5,309C 520.207,310.566 504.874,310.899 489.5,310C 476.716,307.26 471.216,299.427 473,286.5C 478.439,270.953 484.439,255.62 491,240.5C 493.556,228.389 488.723,223.556 476.5,226C 469.726,228.967 464.226,233.467 460,239.5C 450.472,260.417 441.139,281.417 432,302.5C 424.551,311.586 415.384,314.086 404.5,310C 398.566,304.577 397.066,298.077 400,290.5C 407.866,272.064 415.033,253.397 421.5,234.5C 420.594,228.27 416.927,225.27 410.5,225.5C 401.418,226.73 394.584,231.397 390,239.5C 382.115,256.602 374.782,273.936 368,291.5C 364.949,300.207 359.449,306.707 351.5,311C 334.102,314.599 326.935,307.766 330,290.5C 341.805,261.419 353.805,232.419 366,203.5C 372.798,194.675 381.298,192.509 391.5,197C 394.807,199.47 397.14,202.637 398.5,206.5C 405.463,200.526 413.13,195.859 421.5,192.5 Z"/></g>
<g><path style="opacity:1" fill="#121212" d="M 642.5,192.5 C 664.947,191.775 678.447,202.442 683,224.5C 687.046,255.21 677.88,281.043 655.5,302C 647.399,307.557 638.399,310.224 628.5,310C 618.227,311.322 608.227,310.322 598.5,307C 595.354,304.688 592.354,302.188 589.5,299.5C 575.018,334.47 560.518,369.47 546,404.5C 538.946,415.288 529.446,418.455 517.5,414C 511.395,408.633 509.895,402.133 513,394.5C 538.471,331.087 564.138,267.753 590,204.5C 595.915,195.297 604.082,192.464 614.5,196C 617.63,198.128 620.463,200.628 623,203.5C 628.632,198.106 635.132,194.439 642.5,192.5 Z M 630.5,234.5 C 628.5,236.671 626.666,239.004 625,241.5C 622.126,249.288 618.96,256.955 615.5,264.5C 619.248,265.842 622.915,265.675 626.5,264C 634.212,255.699 637.879,245.865 637.5,234.5C 635.167,234.5 632.833,234.5 630.5,234.5 Z"/></g>
<g><path style="opacity:1" fill="#121212" d="M 835.5,192.5 C 879.662,192.158 898.828,213.824 893,257.5C 880.87,301.841 852.037,319.008 806.5,309C 788.72,303.312 778.553,291.145 776,272.5C 773.544,239.577 786.711,215.077 815.5,199C 822.179,196.505 828.846,194.338 835.5,192.5 Z M 836.5,237.5 C 833.562,239.934 830.729,242.601 828,245.5C 823.673,251.448 822.506,257.948 824.5,265C 828.833,265.667 833.167,265.667 837.5,265C 846.577,257.859 849.243,248.859 845.5,238C 842.518,237.502 839.518,237.335 836.5,237.5 Z"/></g>
<g><path style="opacity:1" fill="#111111" d="M 1093.5,192.5 C 1104.79,191.212 1115.12,193.712 1124.5,200C 1126.35,201.684 1128.02,203.517 1129.5,205.5C 1136.96,195.099 1146.63,192.266 1158.5,197C 1164.17,201.53 1166,207.363 1164,214.5C 1155.53,235.418 1147.36,256.418 1139.5,277.5C 1148.23,277.161 1156.89,277.661 1165.5,279C 1173.51,281.708 1176.34,287.208 1174,295.5C 1172.09,303.077 1167.25,307.577 1159.5,309C 1147.54,310.532 1135.54,310.865 1123.5,310C 1118.44,308.104 1114.44,304.938 1111.5,300.5C 1106.5,305.499 1100.5,308.666 1093.5,310C 1051.76,315.592 1032.93,297.425 1037,255.5C 1043.47,223.21 1062.3,202.21 1093.5,192.5 Z M 1099.5,234.5 C 1096.23,237.268 1093.06,240.268 1090,243.5C 1084.43,250.177 1082.6,257.677 1084.5,266C 1087.16,266.073 1089.82,265.74 1092.5,265C 1097.03,255.082 1101.36,245.082 1105.5,235C 1103.53,234.505 1101.53,234.338 1099.5,234.5 Z"/></g>
<g><path style="opacity:1" fill="#111111" d="M 1455.5,192.5 C 1468.56,191.67 1480.89,194.17 1492.5,200C 1507.67,211.461 1512.17,226.295 1506,244.5C 1498.64,259.445 1486.47,266.611 1469.5,266C 1457.84,266.5 1446.17,266.667 1434.5,266.5C 1434.72,272.231 1437.72,275.731 1443.5,277C 1462.5,277.333 1481.5,277.667 1500.5,278C 1512.77,279.02 1517.27,285.52 1514,297.5C 1510.58,304.966 1504.75,309.132 1496.5,310C 1476.5,310.667 1456.5,310.667 1436.5,310C 1414.88,307.715 1402.38,295.881 1399,274.5C 1395.56,237.876 1410.39,211.709 1443.5,196C 1447.67,195.009 1451.67,193.842 1455.5,192.5 Z"/></g>
<g><path style="opacity:1" fill="#111111" d="M 940.5,194.5 C 957.676,194.846 963.509,203.179 958,219.5C 951.667,235.167 945.333,250.833 939,266.5C 938.333,269.5 938.333,272.5 939,275.5C 939.903,276.701 941.069,277.535 942.5,278C 953.518,279.41 962.684,275.91 970,267.5C 978.667,246.833 987.333,226.167 996,205.5C 1003.63,194.267 1013.46,191.767 1025.5,198C 1031.23,204.824 1032.07,212.324 1028,220.5C 1014.67,252.336 1001.83,284.336 989.5,316.5C 996.841,316.334 1004.17,316.5 1011.5,317C 1025.74,319.418 1029.58,327.251 1023,340.5C 1019.85,344.661 1015.68,347.161 1010.5,348C 998.858,349.028 987.191,349.862 975.5,350.5C 968.397,368.712 959.23,385.712 948,401.5C 929.839,419.337 908.339,425.17 883.5,419C 855,408.177 843.5,387.677 849,357.5C 857.778,334.178 874.611,321.011 899.5,318C 916.5,317.167 933.5,316.333 950.5,315.5C 952.577,312.376 953.743,309.042 954,305.5C 938.377,312.753 923.21,311.92 908.5,303C 898.529,293.402 895.695,281.902 900,268.5C 908.19,246.46 917.19,224.793 927,203.5C 930.528,198.834 935.028,195.834 940.5,194.5 Z M 905.5,361.5 C 902.261,362.593 899.261,364.26 896.5,366.5C 893.976,375.474 897.31,378.641 906.5,376C 912.361,372.972 916.694,368.472 919.5,362.5C 914.88,361.507 910.214,361.173 905.5,361.5 Z"/></g>
<g><path style="opacity:0.964" fill="#e2e2e2" d="M 629.5,222.5 C 647.219,221.871 653.385,230.205 648,247.5C 645.523,257.962 640.356,266.795 632.5,274C 625.903,277.378 618.903,278.378 611.5,277C 605.506,274.815 602.673,270.648 603,264.5C 607.333,254.167 611.667,243.833 616,233.5C 619.336,228.269 623.836,224.602 629.5,222.5 Z M 630.5,234.5 C 628.5,236.671 626.666,239.004 625,241.5C 622.126,249.288 618.96,256.955 615.5,264.5C 619.248,265.842 622.915,265.675 626.5,264C 634.212,255.699 637.879,245.865 637.5,234.5C 635.167,234.5 632.833,234.5 630.5,234.5 Z"/></g>
<g><path style="opacity:0.965" fill="#e3e3e3" d="M 1098.5,222.5 C 1106.58,220.96 1112.74,223.626 1117,230.5C 1117.67,232.5 1117.67,234.5 1117,236.5C 1112.33,247.833 1107.67,259.167 1103,270.5C 1096.58,277.221 1088.75,279.388 1079.5,277C 1075.51,275.552 1073.01,272.719 1072,268.5C 1070.8,247.217 1079.63,231.884 1098.5,222.5 Z M 1099.5,234.5 C 1096.23,237.268 1093.06,240.268 1090,243.5C 1084.43,250.177 1082.6,257.677 1084.5,266C 1087.16,266.073 1089.82,265.74 1092.5,265C 1097.03,255.082 1101.36,245.082 1105.5,235C 1103.53,234.505 1101.53,234.338 1099.5,234.5 Z"/></g>
<g><path style="opacity:0.965" fill="#e2e2e2" d="M 1253.5,222.5 C 1270.3,222.143 1276.46,230.143 1272,246.5C 1268.93,257.144 1263.43,266.311 1255.5,274C 1243.97,280.046 1233.97,278.212 1225.5,268.5C 1229.72,257.718 1234.22,247.051 1239,236.5C 1242.41,230.257 1247.24,225.59 1253.5,222.5 Z M 1255.5,234.5 C 1253.53,236.304 1251.7,238.304 1250,240.5C 1246.3,248.602 1242.8,256.768 1239.5,265C 1242.96,265.817 1246.3,265.483 1249.5,264C 1256.96,255.587 1260.96,245.754 1261.5,234.5C 1259.5,234.5 1257.5,234.5 1255.5,234.5 Z"/></g>
<g><path style="opacity:1" fill="#e1e1e1" d="M 1457.5,223.5 C 1461.97,223.133 1466.3,223.633 1470.5,225C 1475.7,231.942 1474.03,236.275 1465.5,238C 1457.48,238.832 1449.48,238.665 1441.5,237.5C 1445.35,230.977 1450.68,226.311 1457.5,223.5 Z"/></g>
<g><path style="opacity:0.963" fill="#e2e2e2" d="M 835.5,225.5 C 853.087,224.589 860.921,232.922 859,250.5C 854.097,273.192 840.597,281.359 818.5,275C 811.818,268.936 809.651,261.436 812,252.5C 815.688,239.729 823.521,230.729 835.5,225.5 Z M 836.5,237.5 C 833.562,239.934 830.729,242.601 828,245.5C 823.673,251.448 822.506,257.948 824.5,265C 828.833,265.667 833.167,265.667 837.5,265C 846.577,257.859 849.243,248.859 845.5,238C 842.518,237.502 839.518,237.335 836.5,237.5 Z"/></g>
<g><path style="opacity:0.965" fill="#e3e3e3" d="M 906.5,349.5 C 917.52,349.168 928.52,349.501 939.5,350.5C 933.933,363.144 926.266,374.311 916.5,384C 906.147,390.481 896.314,389.981 887,382.5C 881.427,372.713 882.594,363.879 890.5,356C 895.566,352.928 900.9,350.762 906.5,349.5 Z M 905.5,361.5 C 902.261,362.593 899.261,364.26 896.5,366.5C 893.976,375.474 897.31,378.641 906.5,376C 912.361,372.972 916.694,368.472 919.5,362.5C 914.88,361.507 910.214,361.173 905.5,361.5 Z"/></g>
</svg>
